<?xml version="1.0" encoding="UTF-8"?>
<svg width="78.303mm" height="18.288mm" version="1.1" viewBox="0 0 78.303 18.288" xmlns="http://www.w3.org/2000/svg" xmlns:cc="http://creativecommons.org/ns#" xmlns:dc="http://purl.org/dc/elements/1.1/" xmlns:rdf="http://www.w3.org/1999/02/22-rdf-syntax-ns#">
 <metadata>
  <rdf:RDF>
   <cc:Work rdf:about="">
    <dc:format>image/svg+xml</dc:format>
    <dc:type rdf:resource="http://purl.org/dc/dcmitype/StillImage"/>
    <dc:title/>
   </cc:Work>
  </rdf:RDF>
 </metadata>
 <g transform="translate(-21.276 -40.602)" stroke-width=".26458">
  <g aria-label="Rock">
   <path d="m21.276 40.708h1.7251q0.89958 0 1.3123 0.42333 0.41275 0.41275 0.41275 1.2806v0.45508q0 1.1536-0.762 1.4605v0.02117q0.42333 0.127 0.59266 0.51858 0.17992 0.39158 0.17992 1.0477v1.3017q0 0.3175 0.02117 0.51858 0.02117 0.1905 0.10583 0.381h-1.1853q-0.0635-0.17992-0.08467-0.33867-0.02117-0.15875-0.02117-0.5715v-1.3547q0-0.508-0.16933-0.70908-0.15875-0.20108-0.56092-0.20108h-0.40217v3.175h-1.1642zm1.5875 3.175q0.34925 0 0.51858-0.17992 0.17992-0.17992 0.17992-0.60325v-0.5715q0-0.40217-0.14817-0.58208-0.13758-0.17992-0.4445-0.17992h-0.52916v2.1167z"/>
   <path d="m27.223 48.222q-0.85725 0-1.3123-0.48683t-0.45508-1.3758v-3.8947q0-0.889 0.45508-1.3758t1.3123-0.48683q0.85725 0 1.3123 0.48683t0.45508 1.3758v3.8947q0 0.889-0.45508 1.3758t-1.3123 0.48683zm0-1.0583q0.60325 0 0.60325-0.73025v-4.0428q0-0.73025-0.60325-0.73025-0.60325 0-0.60325 0.73025v4.0428q0 0.73025 0.60325 0.73025z"/>
   <path d="m31.414 48.222q-0.83608 0-1.2806-0.47625-0.43392-0.47625-0.43392-1.3441v-3.9793q0-0.86783 0.43392-1.3441 0.4445-0.47625 1.2806-0.47625 0.83608 0 1.27 0.47625 0.4445 0.47625 0.4445 1.3441v0.78316h-1.1007v-0.85725q0-0.68792-0.58208-0.68792-0.58208 0-0.58208 0.68792v4.1381q0 0.67733 0.58208 0.67733 0.58208 0 0.58208-0.67733v-1.1324h1.1007v1.0477q0 0.86783-0.4445 1.3441-0.43392 0.47625-1.27 0.47625z"/>
   <path d="m33.827 40.708h1.1642v3.1221l1.4817-3.1221h1.1642l-1.3864 2.7199 1.4076 4.6884h-1.2171l-0.98425-3.302-0.46566 0.94191v2.3601h-1.1642z"/>
  </g>
  <g aria-label="Scheme">
   <path d="m46.234 58.89q-2.032 0-3.0734-1.143-1.0414-1.1684-1.0414-3.3274v-1.016h2.6416v1.2192q0 1.7272 1.4478 1.7272 0.7112 0 1.0668-0.4064 0.381-0.4318 0.381-1.3716 0-1.1176-0.508-1.9558-0.508-0.8636-1.8796-2.0574-1.7272-1.524-2.413-2.7432-0.6858-1.2446-0.6858-2.794 0-2.1082 1.0668-3.2512 1.0668-1.1684 3.0988-1.1684 2.0066 0 3.0226 1.1684 1.0414 1.143 1.0414 3.302v0.7366h-2.6416v-0.9144q0-0.9144-0.3556-1.3208-0.3556-0.4318-1.0414-0.4318-1.397 0-1.397 1.7018 0 0.9652 0.508 1.8034 0.5334 0.8382 1.905 2.032 1.7526 1.524 2.413 2.7686t0.6604 2.921q0 2.1844-1.0922 3.3528-1.0668 1.1684-3.1242 1.1684z"/>
   <path d="m55.313 58.89q-2.0066 0-3.0734-1.143-1.0414-1.143-1.0414-3.2258v-9.5504q0-2.0828 1.0414-3.2258 1.0668-1.143 3.0734-1.143t3.048 1.143q1.0668 1.143 1.0668 3.2258v1.8796h-2.6416v-2.0574q0-1.651-1.397-1.651t-1.397 1.651v9.9314q0 1.6256 1.397 1.6256t1.397-1.6256v-2.7178h2.6416v2.5146q0 2.0828-1.0668 3.2258-1.0414 1.143-3.048 1.143z"/>
   <path d="m60.429 40.856h2.794v7.239h2.9972v-7.239h2.794v17.78h-2.794v-8.001h-2.9972v8.001h-2.794z"/>
   <path d="m70.423 40.856h7.62v2.54h-4.826v4.699h3.8354v2.54h-3.8354v5.461h4.826v2.54h-7.62z"/>
   <path d="m78.968 40.856h3.9878l1.778 12.725h0.0508l1.778-12.725h3.9878v17.78h-2.6416v-13.462h-0.0508l-2.032 13.462h-2.3368l-2.032-13.462h-0.0508v13.462h-2.4384z"/>
   <path d="m91.959 40.856h7.62v2.54h-4.826v4.699h3.8354v2.54h-3.8354v5.461h4.826v2.54h-7.62z"/>
  </g>
  <g aria-label="Paper">
   <path d="m21.276 50.99h1.7145q0.86783 0 1.3017 0.46566 0.43392 0.46566 0.43392 1.3652v0.73025q0 0.89958-0.43392 1.3652-0.43392 0.46566-1.3017 0.46566h-0.55033v3.0162h-1.1642zm1.7145 3.3337q0.28575 0 0.42333-0.15875 0.14817-0.15875 0.14817-0.53975v-0.87841q0-0.381-0.14817-0.53975-0.13758-0.15875-0.42333-0.15875h-0.55033v2.2754z"/>
   <path d="m25.89 50.99h1.5769l1.2065 7.4083h-1.1642l-0.21167-1.4711v0.02117h-1.3229l-0.21167 1.4499h-1.0795zm1.27 4.953-0.51858-3.6618h-0.02117l-0.508 3.6618z"/>
   <path d="m29.234 50.99h1.7145q0.86783 0 1.3017 0.46566 0.43392 0.46566 0.43392 1.3652v0.73025q0 0.89958-0.43392 1.3652-0.43392 0.46566-1.3017 0.46566h-0.55033v3.0162h-1.1642zm1.7145 3.3337q0.28575 0 0.42333-0.15875 0.14817-0.15875 0.14817-0.53975v-0.87841q0-0.381-0.14817-0.53975-0.13758-0.15875-0.42333-0.15875h-0.55033v2.2754z"/>
   <path d="m33.319 50.99h3.175v1.0583h-2.0108v1.9579h1.5981v1.0583h-1.5981v2.2754h2.0108v1.0583h-3.175z"/>
   <path d="m37.161 50.99h1.7251q0.89958 0 1.3123 0.42333 0.41275 0.41275 0.41275 1.2806v0.45508q0 1.1536-0.762 1.4605v0.02117q0.42333 0.127 0.59266 0.51858 0.17992 0.39158 0.17992 1.0477v1.3017q0 0.3175 0.02117 0.51858 0.02117 0.1905 0.10583 0.381h-1.1853q-0.0635-0.17992-0.08467-0.33867-0.02117-0.15875-0.02117-0.5715v-1.3547q0-0.508-0.16933-0.70908-0.15875-0.20108-0.56092-0.20108h-0.40216v3.175h-1.1642zm1.5875 3.175q0.34925 0 0.51858-0.17992 0.17992-0.17992 0.17992-0.60325v-0.5715q0-0.40217-0.14817-0.58208-0.13758-0.17992-0.4445-0.17992h-0.52916v2.1167z"/>
  </g>
 </g>
</svg>
