<?xml version="1.0" encoding="UTF-8"?>
<svg width="80.362mm" height="18.288mm" version="1.1" viewBox="0 0 80.362 18.288" xmlns="http://www.w3.org/2000/svg" xmlns:cc="http://creativecommons.org/ns#" xmlns:dc="http://purl.org/dc/elements/1.1/" xmlns:rdf="http://www.w3.org/1999/02/22-rdf-syntax-ns#">
 <metadata>
  <rdf:RDF>
   <cc:Work rdf:about="">
    <dc:format>image/svg+xml</dc:format>
    <dc:type rdf:resource="http://purl.org/dc/dcmitype/StillImage"/>
    <dc:title/>
   </cc:Work>
  </rdf:RDF>
 </metadata>
 <g transform="translate(-19.217 -40.602)" stroke-width=".26458">
  <g aria-label="Rock">
   <path d="m19.217 40.722h1.9551q1.0195 0 1.4873 0.47978 0.46778 0.46778 0.46778 1.4513v0.51576q0 1.3074-0.8636 1.6552v0.02399q0.47978 0.14393 0.67169 0.58773 0.2039 0.44379 0.2039 1.1874v1.4753q0 0.35983 0.02399 0.58772 0.02399 0.2159 0.11994 0.4318h-1.3434q-0.07197-0.2039-0.09596-0.38382t-0.02399-0.6477v-1.5353q0-0.57573-0.19191-0.80362-0.17992-0.22789-0.6357-0.22789h-0.45579v3.5983h-1.3194zm1.7992 3.5983q0.39582 0 0.58772-0.2039 0.2039-0.2039 0.2039-0.68368v-0.6477q0-0.45579-0.16792-0.65969-0.15593-0.2039-0.50376-0.2039h-0.59972v2.3989z"/>
   <path d="m25.958 49.238q-0.97155 0-1.4873-0.55174-0.51576-0.55174-0.51576-1.5593v-4.4139q0-1.0075 0.51576-1.5593 0.51576-0.55174 1.4873-0.55174t1.4873 0.55174q0.51576 0.55174 0.51576 1.5593v4.4139q0 1.0075-0.51576 1.5593-0.51576 0.55174-1.4873 0.55174zm0-1.1994q0.68368 0 0.68368-0.82761v-4.5819q0-0.82761-0.68368-0.82761t-0.68368 0.82761v4.5819q0 0.82761 0.68368 0.82761z"/>
   <path d="m30.707 49.238q-0.94756 0-1.4513-0.53975-0.49177-0.53975-0.49177-1.5233v-4.5099q0-0.98354 0.49177-1.5233 0.50376-0.53975 1.4513-0.53975 0.94756 0 1.4393 0.53975 0.50376 0.53975 0.50376 1.5233v0.88759h-1.2474v-0.97155q0-0.77964-0.65969-0.77964t-0.65969 0.77964v4.6898q0 0.76764 0.65969 0.76764t0.65969-0.76764v-1.2834h1.2474v1.1874q0 0.98354-0.50376 1.5233-0.49177 0.53975-1.4393 0.53975z"/>
   <path d="m33.442 40.722h1.3194v3.5383l1.6792-3.5383h1.3194l-1.5713 3.0826 1.5953 5.3135h-1.3794l-1.1155-3.7423-0.52775 1.0675v2.6748h-1.3194z"/>
  </g>
  <g aria-label="Scheme">
   <path d="m46.234 58.89q-2.032 0-3.0734-1.143-1.0414-1.1684-1.0414-3.3274v-1.016h2.6416v1.2192q0 1.7272 1.4478 1.7272 0.7112 0 1.0668-0.4064 0.381-0.4318 0.381-1.3716 0-1.1176-0.508-1.9558-0.508-0.8636-1.8796-2.0574-1.7272-1.524-2.413-2.7432-0.6858-1.2446-0.6858-2.794 0-2.1082 1.0668-3.2512 1.0668-1.1684 3.0988-1.1684 2.0066 0 3.0226 1.1684 1.0414 1.143 1.0414 3.302v0.7366h-2.6416v-0.9144q0-0.9144-0.3556-1.3208-0.3556-0.4318-1.0414-0.4318-1.397 0-1.397 1.7018 0 0.9652 0.508 1.8034 0.5334 0.8382 1.905 2.032 1.7526 1.524 2.413 2.7686t0.6604 2.921q0 2.1844-1.0922 3.3528-1.0668 1.1684-3.1242 1.1684z"/>
   <path d="m55.313 58.89q-2.0066 0-3.0734-1.143-1.0414-1.143-1.0414-3.2258v-9.5504q0-2.0828 1.0414-3.2258 1.0668-1.143 3.0734-1.143t3.048 1.143q1.0668 1.143 1.0668 3.2258v1.8796h-2.6416v-2.0574q0-1.651-1.397-1.651t-1.397 1.651v9.9314q0 1.6256 1.397 1.6256t1.397-1.6256v-2.7178h2.6416v2.5146q0 2.0828-1.0668 3.2258-1.0414 1.143-3.048 1.143z"/>
   <path d="m60.429 40.856h2.794v7.239h2.9972v-7.239h2.794v17.78h-2.794v-8.001h-2.9972v8.001h-2.794z"/>
   <path d="m70.423 40.856h7.62v2.54h-4.826v4.699h3.8354v2.54h-3.8354v5.461h4.826v2.54h-7.62z"/>
   <path d="m78.968 40.856h3.9878l1.778 12.725h0.0508l1.778-12.725h3.9878v17.78h-2.6416v-13.462h-0.0508l-2.032 13.462h-2.3368l-2.032-13.462h-0.0508v13.462h-2.4384z"/>
   <path d="m91.959 40.856h7.62v2.54h-4.826v4.699h3.8354v2.54h-3.8354v5.461h4.826v2.54h-7.62z"/>
  </g>
  <g aria-label="Paper">
   <path d="m19.217 50.494h1.9431q0.98354 0 1.4753 0.52775 0.49177 0.52775 0.49177 1.5473v0.82761q0 1.0195-0.49177 1.5473-0.49177 0.52775-1.4753 0.52775h-0.62371v3.4184h-1.3194zm1.9431 3.7782q0.32385 0 0.47978-0.17992 0.16792-0.17992 0.16792-0.61171v-0.99554q0-0.4318-0.16792-0.61171-0.15593-0.17992-0.47978-0.17992h-0.62371v2.5788z"/>
   <path d="m24.446 50.494h1.7872l1.3674 8.3961h-1.3194l-0.23989-1.6672v0.02399h-1.4993l-0.23989 1.6432h-1.2234zm1.4393 5.6134-0.58772-4.1501h-0.02399l-0.57573 4.1501z"/>
   <path d="m28.237 50.494h1.9431q0.98354 0 1.4753 0.52775 0.49177 0.52775 0.49177 1.5473v0.82761q0 1.0195-0.49177 1.5473-0.49177 0.52775-1.4753 0.52775h-0.62371v3.4184h-1.3194zm1.9431 3.7782q0.32385 0 0.47978-0.17992 0.16792-0.17992 0.16792-0.61171v-0.99554q0-0.4318-0.16792-0.61171-0.15593-0.17992-0.47978-0.17992h-0.62371v2.5788z"/>
   <path d="m32.866 50.494h3.5983v1.1994h-2.2789v2.219h1.8112v1.1994h-1.8112v2.5788h2.2789v1.1994h-3.5983z"/>
   <path d="m37.22 50.494h1.9551q1.0195 0 1.4873 0.47978 0.46778 0.46778 0.46778 1.4513v0.51576q0 1.3074-0.8636 1.6552v0.02399q0.47978 0.14393 0.67169 0.58772 0.2039 0.44379 0.2039 1.1874v1.4753q0 0.35983 0.02399 0.58773 0.02399 0.2159 0.11994 0.4318h-1.3434q-0.07197-0.2039-0.09595-0.38382-0.02399-0.17992-0.02399-0.6477v-1.5353q0-0.57573-0.19191-0.80362-0.17992-0.22789-0.6357-0.22789h-0.45579v3.5983h-1.3194zm1.7992 3.5983q0.39582 0 0.58772-0.2039 0.2039-0.2039 0.2039-0.68368v-0.6477q0-0.45579-0.16792-0.65969-0.15593-0.2039-0.50376-0.2039h-0.59972v2.3989z"/>
  </g>
 </g>
</svg>
